<?xml version="1.0" encoding="UTF-8"?>
<!DOCTYPE svg PUBLIC "-//W3C//DTD SVG 1.1//EN" "http://www.w3.org/Graphics/SVG/1.1/DTD/svg11.dtd">
<!-- Creator: CorelDRAW 2021 (64 Bit) -->
<svg xmlns="http://www.w3.org/2000/svg" xml:space="preserve" width="18.0154mm" height="18.0072mm" version="1.1" style="shape-rendering:geometricPrecision; text-rendering:geometricPrecision; image-rendering:optimizeQuality; fill-rule:evenodd; clip-rule:evenodd"
viewBox="0 0 49194 49172"
 xmlns:xlink="http://www.w3.org/1999/xlink"
 xmlns:xodm="http://www.corel.com/coreldraw/odm/2003">
 <defs>
  <style type="text/css">
   <![CDATA[
    .fil0 {fill:white}
   ]]>
  </style>
 </defs>
 <g id="Camada_x0020_1">
  <metadata id="CorelCorpID_0Corel-Layer"/>
  <path class="fil0" d="M1301 37097c791,2593 2561,4853 3871,6261 877,942 4443,3872 6296,3978 2243,2590 20696,1698 25402,1645l12198 9 20 -11862c-50,-5634 737,-21796 -1332,-25191 -785,-2405 -2852,-5229 -4108,-6470 -973,-962 -4229,-3602 -6264,-3953l-5754 -1411c-2362,-132 -4936,-40 -7320,-40 -3472,0 -10767,-542 -12888,1595 -2013,179 -5491,3125 -6411,4148 -686,763 -1507,1747 -2280,3015 -786,1291 -1059,2291 -1736,3480 -1179,4497 -954,7569 -954,12509 0,3565 -397,9497 1259,12289zm13205 -12825c8027,-2371 11187,5692 13777,10151 3616,6227 4678,5196 13606,5227 6298,22 3245,-2348 -1284,-10401 -1504,-2675 -3023,-5304 -4582,-7931 -530,-892 -8781,-15412 -9258,-15677 -1696,-946 -3204,2675 -3843,3802 -1330,2342 -8298,14130 -8415,14829zm1095 2309c-4023,942 -4776,3939 -7152,7945 -3540,5967 -2146,5115 6402,5124 2560,3 4312,-82 6110,-1328 1307,-905 2543,-2828 2627,-4990 164,-4173 -3568,-7786 -7987,-6752z"/>
 </g>
</svg>
